<mxfile host="app.diagrams.net" modified="2023-01-13T19:18:09.545Z" agent="5.0 (Windows)" etag="-zhKerOqiKwCZzZ_rJqB" version="20.8.5" type="github">
  <diagram id="76RzDP89EYHcpe8U2R46" name="Seite-1">
    <mxGraphModel dx="1185" dy="648" grid="1" gridSize="10" guides="1" tooltips="1" connect="1" arrows="1" fold="1" page="1" pageScale="1" pageWidth="827" pageHeight="1169" math="0" shadow="0">
      <root>
        <mxCell id="0" />
        <mxCell id="1" parent="0" />
        <mxCell id="9h03OuPYDGmzmqrfUAcW-9" value="Hotel" style="swimlane;fontStyle=0;childLayout=stackLayout;horizontal=1;startSize=26;fillColor=none;horizontalStack=0;resizeParent=1;resizeParentMax=0;resizeLast=0;collapsible=1;marginBottom=0;" vertex="1" parent="1">
          <mxGeometry x="110" y="26" width="140" height="52" as="geometry" />
        </mxCell>
        <mxCell id="9h03OuPYDGmzmqrfUAcW-10" value="+ name: String" style="text;strokeColor=none;fillColor=none;align=left;verticalAlign=top;spacingLeft=4;spacingRight=4;overflow=hidden;rotatable=0;points=[[0,0.5],[1,0.5]];portConstraint=eastwest;" vertex="1" parent="9h03OuPYDGmzmqrfUAcW-9">
          <mxGeometry y="26" width="140" height="26" as="geometry" />
        </mxCell>
        <mxCell id="9h03OuPYDGmzmqrfUAcW-13" value="Anschrift" style="swimlane;fontStyle=0;childLayout=stackLayout;horizontal=1;startSize=26;fillColor=none;horizontalStack=0;resizeParent=1;resizeParentMax=0;resizeLast=0;collapsible=1;marginBottom=0;" vertex="1" parent="1">
          <mxGeometry x="360" width="140" height="104" as="geometry" />
        </mxCell>
        <mxCell id="9h03OuPYDGmzmqrfUAcW-14" value="+ anrede: String" style="text;strokeColor=none;fillColor=none;align=left;verticalAlign=top;spacingLeft=4;spacingRight=4;overflow=hidden;rotatable=0;points=[[0,0.5],[1,0.5]];portConstraint=eastwest;" vertex="1" parent="9h03OuPYDGmzmqrfUAcW-13">
          <mxGeometry y="26" width="140" height="26" as="geometry" />
        </mxCell>
        <mxCell id="9h03OuPYDGmzmqrfUAcW-15" value="+ telefon: String" style="text;strokeColor=none;fillColor=none;align=left;verticalAlign=top;spacingLeft=4;spacingRight=4;overflow=hidden;rotatable=0;points=[[0,0.5],[1,0.5]];portConstraint=eastwest;" vertex="1" parent="9h03OuPYDGmzmqrfUAcW-13">
          <mxGeometry y="52" width="140" height="26" as="geometry" />
        </mxCell>
        <mxCell id="9h03OuPYDGmzmqrfUAcW-16" value="+ email: String" style="text;strokeColor=none;fillColor=none;align=left;verticalAlign=top;spacingLeft=4;spacingRight=4;overflow=hidden;rotatable=0;points=[[0,0.5],[1,0.5]];portConstraint=eastwest;" vertex="1" parent="9h03OuPYDGmzmqrfUAcW-13">
          <mxGeometry y="78" width="140" height="26" as="geometry" />
        </mxCell>
        <mxCell id="9h03OuPYDGmzmqrfUAcW-17" value="Adresse" style="swimlane;fontStyle=0;childLayout=stackLayout;horizontal=1;startSize=26;fillColor=none;horizontalStack=0;resizeParent=1;resizeParentMax=0;resizeLast=0;collapsible=1;marginBottom=0;" vertex="1" parent="1">
          <mxGeometry x="520" y="108" width="140" height="156" as="geometry" />
        </mxCell>
        <mxCell id="9h03OuPYDGmzmqrfUAcW-18" value="+ strasse: String" style="text;strokeColor=none;fillColor=none;align=left;verticalAlign=top;spacingLeft=4;spacingRight=4;overflow=hidden;rotatable=0;points=[[0,0.5],[1,0.5]];portConstraint=eastwest;" vertex="1" parent="9h03OuPYDGmzmqrfUAcW-17">
          <mxGeometry y="26" width="140" height="26" as="geometry" />
        </mxCell>
        <mxCell id="9h03OuPYDGmzmqrfUAcW-19" value="+ hausnummer: String" style="text;strokeColor=none;fillColor=none;align=left;verticalAlign=top;spacingLeft=4;spacingRight=4;overflow=hidden;rotatable=0;points=[[0,0.5],[1,0.5]];portConstraint=eastwest;" vertex="1" parent="9h03OuPYDGmzmqrfUAcW-17">
          <mxGeometry y="52" width="140" height="26" as="geometry" />
        </mxCell>
        <mxCell id="9h03OuPYDGmzmqrfUAcW-20" value="+ postleitzahl: String" style="text;strokeColor=none;fillColor=none;align=left;verticalAlign=top;spacingLeft=4;spacingRight=4;overflow=hidden;rotatable=0;points=[[0,0.5],[1,0.5]];portConstraint=eastwest;" vertex="1" parent="9h03OuPYDGmzmqrfUAcW-17">
          <mxGeometry y="78" width="140" height="26" as="geometry" />
        </mxCell>
        <mxCell id="9h03OuPYDGmzmqrfUAcW-21" value="+ ort: String" style="text;strokeColor=none;fillColor=none;align=left;verticalAlign=top;spacingLeft=4;spacingRight=4;overflow=hidden;rotatable=0;points=[[0,0.5],[1,0.5]];portConstraint=eastwest;" vertex="1" parent="9h03OuPYDGmzmqrfUAcW-17">
          <mxGeometry y="104" width="140" height="26" as="geometry" />
        </mxCell>
        <mxCell id="9h03OuPYDGmzmqrfUAcW-22" value="+ adresszusatz: String" style="text;strokeColor=none;fillColor=none;align=left;verticalAlign=top;spacingLeft=4;spacingRight=4;overflow=hidden;rotatable=0;points=[[0,0.5],[1,0.5]];portConstraint=eastwest;" vertex="1" parent="9h03OuPYDGmzmqrfUAcW-17">
          <mxGeometry y="130" width="140" height="26" as="geometry" />
        </mxCell>
        <mxCell id="9h03OuPYDGmzmqrfUAcW-23" value="Land" style="swimlane;fontStyle=0;childLayout=stackLayout;horizontal=1;startSize=26;fillColor=none;horizontalStack=0;resizeParent=1;resizeParentMax=0;resizeLast=0;collapsible=1;marginBottom=0;" vertex="1" parent="1">
          <mxGeometry x="687" width="140" height="104" as="geometry" />
        </mxCell>
        <mxCell id="9h03OuPYDGmzmqrfUAcW-24" value="+ name: String" style="text;strokeColor=none;fillColor=none;align=left;verticalAlign=top;spacingLeft=4;spacingRight=4;overflow=hidden;rotatable=0;points=[[0,0.5],[1,0.5]];portConstraint=eastwest;" vertex="1" parent="9h03OuPYDGmzmqrfUAcW-23">
          <mxGeometry y="26" width="140" height="26" as="geometry" />
        </mxCell>
        <mxCell id="9h03OuPYDGmzmqrfUAcW-25" value="+ amtssprache: String" style="text;strokeColor=none;fillColor=none;align=left;verticalAlign=top;spacingLeft=4;spacingRight=4;overflow=hidden;rotatable=0;points=[[0,0.5],[1,0.5]];portConstraint=eastwest;" vertex="1" parent="9h03OuPYDGmzmqrfUAcW-23">
          <mxGeometry y="52" width="140" height="26" as="geometry" />
        </mxCell>
        <mxCell id="9h03OuPYDGmzmqrfUAcW-26" value="+ iso2: String" style="text;strokeColor=none;fillColor=none;align=left;verticalAlign=top;spacingLeft=4;spacingRight=4;overflow=hidden;rotatable=0;points=[[0,0.5],[1,0.5]];portConstraint=eastwest;" vertex="1" parent="9h03OuPYDGmzmqrfUAcW-23">
          <mxGeometry y="78" width="140" height="26" as="geometry" />
        </mxCell>
        <mxCell id="9h03OuPYDGmzmqrfUAcW-27" value="Zeitzone" style="swimlane;fontStyle=0;childLayout=stackLayout;horizontal=1;startSize=26;fillColor=none;horizontalStack=0;resizeParent=1;resizeParentMax=0;resizeLast=0;collapsible=1;marginBottom=0;" vertex="1" parent="1">
          <mxGeometry x="687" y="270" width="140" height="78" as="geometry" />
        </mxCell>
        <mxCell id="9h03OuPYDGmzmqrfUAcW-28" value="+ bezeichnung: String" style="text;strokeColor=none;fillColor=none;align=left;verticalAlign=top;spacingLeft=4;spacingRight=4;overflow=hidden;rotatable=0;points=[[0,0.5],[1,0.5]];portConstraint=eastwest;" vertex="1" parent="9h03OuPYDGmzmqrfUAcW-27">
          <mxGeometry y="26" width="140" height="26" as="geometry" />
        </mxCell>
        <mxCell id="9h03OuPYDGmzmqrfUAcW-29" value="+ diffUtc: int" style="text;strokeColor=none;fillColor=none;align=left;verticalAlign=top;spacingLeft=4;spacingRight=4;overflow=hidden;rotatable=0;points=[[0,0.5],[1,0.5]];portConstraint=eastwest;" vertex="1" parent="9h03OuPYDGmzmqrfUAcW-27">
          <mxGeometry y="52" width="140" height="26" as="geometry" />
        </mxCell>
        <mxCell id="9h03OuPYDGmzmqrfUAcW-31" value="LandZeitzone" style="swimlane;fontStyle=0;childLayout=stackLayout;horizontal=1;startSize=26;fillColor=none;horizontalStack=0;resizeParent=1;resizeParentMax=0;resizeLast=0;collapsible=1;marginBottom=0;" vertex="1" parent="1">
          <mxGeometry x="687" y="160" width="140" height="52" as="geometry" />
        </mxCell>
        <mxCell id="9h03OuPYDGmzmqrfUAcW-34" value="Zimmer" style="swimlane;fontStyle=0;childLayout=stackLayout;horizontal=1;startSize=26;fillColor=none;horizontalStack=0;resizeParent=1;resizeParentMax=0;resizeLast=0;collapsible=1;marginBottom=0;" vertex="1" parent="1">
          <mxGeometry x="180" y="160" width="140" height="52" as="geometry" />
        </mxCell>
        <mxCell id="9h03OuPYDGmzmqrfUAcW-35" value="+ nr: String" style="text;strokeColor=none;fillColor=none;align=left;verticalAlign=top;spacingLeft=4;spacingRight=4;overflow=hidden;rotatable=0;points=[[0,0.5],[1,0.5]];portConstraint=eastwest;" vertex="1" parent="9h03OuPYDGmzmqrfUAcW-34">
          <mxGeometry y="26" width="140" height="26" as="geometry" />
        </mxCell>
        <mxCell id="9h03OuPYDGmzmqrfUAcW-36" value="&lt;&lt;enumeration&gt;&gt;&#xa;ZimmerTyp" style="swimlane;fontStyle=0;childLayout=stackLayout;horizontal=1;startSize=26;fillColor=none;horizontalStack=0;resizeParent=1;resizeParentMax=0;resizeLast=0;collapsible=1;marginBottom=0;" vertex="1" parent="1">
          <mxGeometry y="220" width="140" height="104" as="geometry" />
        </mxCell>
        <mxCell id="9h03OuPYDGmzmqrfUAcW-37" value="+ name: String" style="text;strokeColor=none;fillColor=none;align=left;verticalAlign=top;spacingLeft=4;spacingRight=4;overflow=hidden;rotatable=0;points=[[0,0.5],[1,0.5]];portConstraint=eastwest;" vertex="1" parent="9h03OuPYDGmzmqrfUAcW-36">
          <mxGeometry y="26" width="140" height="26" as="geometry" />
        </mxCell>
        <mxCell id="9h03OuPYDGmzmqrfUAcW-38" value="+ preis: double" style="text;strokeColor=none;fillColor=none;align=left;verticalAlign=top;spacingLeft=4;spacingRight=4;overflow=hidden;rotatable=0;points=[[0,0.5],[1,0.5]];portConstraint=eastwest;" vertex="1" parent="9h03OuPYDGmzmqrfUAcW-36">
          <mxGeometry y="52" width="140" height="26" as="geometry" />
        </mxCell>
        <mxCell id="9h03OuPYDGmzmqrfUAcW-39" value="+ personen: int" style="text;strokeColor=none;fillColor=none;align=left;verticalAlign=top;spacingLeft=4;spacingRight=4;overflow=hidden;rotatable=0;points=[[0,0.5],[1,0.5]];portConstraint=eastwest;" vertex="1" parent="9h03OuPYDGmzmqrfUAcW-36">
          <mxGeometry y="78" width="140" height="26" as="geometry" />
        </mxCell>
        <mxCell id="9h03OuPYDGmzmqrfUAcW-40" value="BuchungsPositionZimmer" style="swimlane;fontStyle=0;childLayout=stackLayout;horizontal=1;startSize=26;fillColor=none;horizontalStack=0;resizeParent=1;resizeParentMax=0;resizeLast=0;collapsible=1;marginBottom=0;" vertex="1" parent="1">
          <mxGeometry x="180" y="330" width="140" height="52" as="geometry" />
        </mxCell>
        <mxCell id="9h03OuPYDGmzmqrfUAcW-41" value="+ datum: String" style="text;strokeColor=none;fillColor=none;align=left;verticalAlign=top;spacingLeft=4;spacingRight=4;overflow=hidden;rotatable=0;points=[[0,0.5],[1,0.5]];portConstraint=eastwest;" vertex="1" parent="9h03OuPYDGmzmqrfUAcW-40">
          <mxGeometry y="26" width="140" height="26" as="geometry" />
        </mxCell>
        <mxCell id="9h03OuPYDGmzmqrfUAcW-42" value="Kunde" style="swimlane;fontStyle=0;childLayout=stackLayout;horizontal=1;startSize=26;fillColor=none;horizontalStack=0;resizeParent=1;resizeParentMax=0;resizeLast=0;collapsible=1;marginBottom=0;" vertex="1" parent="1">
          <mxGeometry x="360" y="252" width="140" height="130" as="geometry" />
        </mxCell>
        <mxCell id="9h03OuPYDGmzmqrfUAcW-43" value="+ nr: String" style="text;strokeColor=none;fillColor=none;align=left;verticalAlign=top;spacingLeft=4;spacingRight=4;overflow=hidden;rotatable=0;points=[[0,0.5],[1,0.5]];portConstraint=eastwest;" vertex="1" parent="9h03OuPYDGmzmqrfUAcW-42">
          <mxGeometry y="26" width="140" height="26" as="geometry" />
        </mxCell>
        <mxCell id="9h03OuPYDGmzmqrfUAcW-44" value="+ vorname: String" style="text;strokeColor=none;fillColor=none;align=left;verticalAlign=top;spacingLeft=4;spacingRight=4;overflow=hidden;rotatable=0;points=[[0,0.5],[1,0.5]];portConstraint=eastwest;" vertex="1" parent="9h03OuPYDGmzmqrfUAcW-42">
          <mxGeometry y="52" width="140" height="26" as="geometry" />
        </mxCell>
        <mxCell id="9h03OuPYDGmzmqrfUAcW-45" value="+ nachname: String" style="text;strokeColor=none;fillColor=none;align=left;verticalAlign=top;spacingLeft=4;spacingRight=4;overflow=hidden;rotatable=0;points=[[0,0.5],[1,0.5]];portConstraint=eastwest;" vertex="1" parent="9h03OuPYDGmzmqrfUAcW-42">
          <mxGeometry y="78" width="140" height="26" as="geometry" />
        </mxCell>
        <mxCell id="9h03OuPYDGmzmqrfUAcW-46" value="+ geburtsdatum: String" style="text;strokeColor=none;fillColor=none;align=left;verticalAlign=top;spacingLeft=4;spacingRight=4;overflow=hidden;rotatable=0;points=[[0,0.5],[1,0.5]];portConstraint=eastwest;" vertex="1" parent="9h03OuPYDGmzmqrfUAcW-42">
          <mxGeometry y="104" width="140" height="26" as="geometry" />
        </mxCell>
        <mxCell id="9h03OuPYDGmzmqrfUAcW-47" value="&lt;&lt;abstract&gt;&gt;&#xa;Zahlungsmethode" style="swimlane;fontStyle=0;childLayout=stackLayout;horizontal=1;startSize=26;fillColor=none;horizontalStack=0;resizeParent=1;resizeParentMax=0;resizeLast=0;collapsible=1;marginBottom=0;" vertex="1" parent="1">
          <mxGeometry x="520" y="430" width="140" height="52" as="geometry" />
        </mxCell>
        <mxCell id="9h03OuPYDGmzmqrfUAcW-50" value="Barzahlung" style="swimlane;fontStyle=0;childLayout=stackLayout;horizontal=1;startSize=26;fillColor=none;horizontalStack=0;resizeParent=1;resizeParentMax=0;resizeLast=0;collapsible=1;marginBottom=0;" vertex="1" parent="1">
          <mxGeometry x="687" y="370" width="140" height="52" as="geometry" />
        </mxCell>
        <mxCell id="9h03OuPYDGmzmqrfUAcW-51" value="Bankverbindung" style="swimlane;fontStyle=0;childLayout=stackLayout;horizontal=1;startSize=26;fillColor=none;horizontalStack=0;resizeParent=1;resizeParentMax=0;resizeLast=0;collapsible=1;marginBottom=0;" vertex="1" parent="1">
          <mxGeometry x="687" y="430" width="140" height="52" as="geometry" />
        </mxCell>
        <mxCell id="9h03OuPYDGmzmqrfUAcW-55" value="+ iban: String" style="text;strokeColor=none;fillColor=none;align=left;verticalAlign=top;spacingLeft=4;spacingRight=4;overflow=hidden;rotatable=0;points=[[0,0.5],[1,0.5]];portConstraint=eastwest;" vertex="1" parent="9h03OuPYDGmzmqrfUAcW-51">
          <mxGeometry y="26" width="140" height="26" as="geometry" />
        </mxCell>
        <mxCell id="9h03OuPYDGmzmqrfUAcW-52" value="Kreditkarte" style="swimlane;fontStyle=0;childLayout=stackLayout;horizontal=1;startSize=26;fillColor=none;horizontalStack=0;resizeParent=1;resizeParentMax=0;resizeLast=0;collapsible=1;marginBottom=0;" vertex="1" parent="1">
          <mxGeometry x="687" y="492" width="140" height="52" as="geometry" />
        </mxCell>
        <mxCell id="9h03OuPYDGmzmqrfUAcW-56" value="+ kartennummer: String" style="text;strokeColor=none;fillColor=none;align=left;verticalAlign=top;spacingLeft=4;spacingRight=4;overflow=hidden;rotatable=0;points=[[0,0.5],[1,0.5]];portConstraint=eastwest;" vertex="1" parent="9h03OuPYDGmzmqrfUAcW-52">
          <mxGeometry y="26" width="140" height="26" as="geometry" />
        </mxCell>
        <mxCell id="9h03OuPYDGmzmqrfUAcW-59" value="&lt;&lt;enumeration&gt;&gt;&#xa;Status" style="swimlane;fontStyle=0;childLayout=stackLayout;horizontal=1;startSize=26;fillColor=none;horizontalStack=0;resizeParent=1;resizeParentMax=0;resizeLast=0;collapsible=1;marginBottom=0;" vertex="1" parent="1">
          <mxGeometry x="150" y="518" width="140" height="52" as="geometry" />
        </mxCell>
        <mxCell id="9h03OuPYDGmzmqrfUAcW-53" value="Buchung" style="swimlane;fontStyle=0;childLayout=stackLayout;horizontal=1;startSize=26;fillColor=none;horizontalStack=0;resizeParent=1;resizeParentMax=0;resizeLast=0;collapsible=1;marginBottom=0;" vertex="1" parent="1">
          <mxGeometry x="360" y="492" width="140" height="104" as="geometry" />
        </mxCell>
        <mxCell id="9h03OuPYDGmzmqrfUAcW-54" value="+ nummer: String" style="text;strokeColor=none;fillColor=none;align=left;verticalAlign=top;spacingLeft=4;spacingRight=4;overflow=hidden;rotatable=0;points=[[0,0.5],[1,0.5]];portConstraint=eastwest;" vertex="1" parent="9h03OuPYDGmzmqrfUAcW-53">
          <mxGeometry y="26" width="140" height="26" as="geometry" />
        </mxCell>
        <mxCell id="9h03OuPYDGmzmqrfUAcW-57" value="+ datum: String" style="text;strokeColor=none;fillColor=none;align=left;verticalAlign=top;spacingLeft=4;spacingRight=4;overflow=hidden;rotatable=0;points=[[0,0.5],[1,0.5]];portConstraint=eastwest;" vertex="1" parent="9h03OuPYDGmzmqrfUAcW-53">
          <mxGeometry y="52" width="140" height="26" as="geometry" />
        </mxCell>
        <mxCell id="9h03OuPYDGmzmqrfUAcW-58" value="+ /gesamtpreis: double" style="text;strokeColor=none;fillColor=none;align=left;verticalAlign=top;spacingLeft=4;spacingRight=4;overflow=hidden;rotatable=0;points=[[0,0.5],[1,0.5]];portConstraint=eastwest;" vertex="1" parent="9h03OuPYDGmzmqrfUAcW-53">
          <mxGeometry y="78" width="140" height="26" as="geometry" />
        </mxCell>
        <mxCell id="9h03OuPYDGmzmqrfUAcW-63" value="BuchungsPositionDL" style="swimlane;fontStyle=0;childLayout=stackLayout;horizontal=1;startSize=26;fillColor=none;horizontalStack=0;resizeParent=1;resizeParentMax=0;resizeLast=0;collapsible=1;marginBottom=0;" vertex="1" parent="1">
          <mxGeometry x="360" y="650" width="140" height="104" as="geometry" />
        </mxCell>
        <mxCell id="9h03OuPYDGmzmqrfUAcW-64" value="+ datum: String" style="text;strokeColor=none;fillColor=none;align=left;verticalAlign=top;spacingLeft=4;spacingRight=4;overflow=hidden;rotatable=0;points=[[0,0.5],[1,0.5]];portConstraint=eastwest;" vertex="1" parent="9h03OuPYDGmzmqrfUAcW-63">
          <mxGeometry y="26" width="140" height="26" as="geometry" />
        </mxCell>
        <mxCell id="9h03OuPYDGmzmqrfUAcW-65" value="+ uhrzeit: String" style="text;strokeColor=none;fillColor=none;align=left;verticalAlign=top;spacingLeft=4;spacingRight=4;overflow=hidden;rotatable=0;points=[[0,0.5],[1,0.5]];portConstraint=eastwest;" vertex="1" parent="9h03OuPYDGmzmqrfUAcW-63">
          <mxGeometry y="52" width="140" height="26" as="geometry" />
        </mxCell>
        <mxCell id="9h03OuPYDGmzmqrfUAcW-66" value="+ preis: double" style="text;strokeColor=none;fillColor=none;align=left;verticalAlign=top;spacingLeft=4;spacingRight=4;overflow=hidden;rotatable=0;points=[[0,0.5],[1,0.5]];portConstraint=eastwest;" vertex="1" parent="9h03OuPYDGmzmqrfUAcW-63">
          <mxGeometry y="78" width="140" height="26" as="geometry" />
        </mxCell>
        <mxCell id="9h03OuPYDGmzmqrfUAcW-67" value="&lt;&lt;abstract&gt;&gt;&#xa;Dienstleistung" style="swimlane;fontStyle=0;childLayout=stackLayout;horizontal=1;startSize=26;fillColor=none;horizontalStack=0;resizeParent=1;resizeParentMax=0;resizeLast=0;collapsible=1;marginBottom=0;" vertex="1" parent="1">
          <mxGeometry x="360" y="800" width="140" height="52" as="geometry" />
        </mxCell>
        <mxCell id="9h03OuPYDGmzmqrfUAcW-68" value="Flug" style="swimlane;fontStyle=0;childLayout=stackLayout;horizontal=1;startSize=26;fillColor=none;horizontalStack=0;resizeParent=1;resizeParentMax=0;resizeLast=0;collapsible=1;marginBottom=0;" vertex="1" parent="1">
          <mxGeometry x="150" y="880" width="140" height="52" as="geometry" />
        </mxCell>
        <mxCell id="9h03OuPYDGmzmqrfUAcW-69" value="+ flugnummer: String" style="text;strokeColor=none;fillColor=none;align=left;verticalAlign=top;spacingLeft=4;spacingRight=4;overflow=hidden;rotatable=0;points=[[0,0.5],[1,0.5]];portConstraint=eastwest;" vertex="1" parent="9h03OuPYDGmzmqrfUAcW-68">
          <mxGeometry y="26" width="140" height="26" as="geometry" />
        </mxCell>
        <mxCell id="9h03OuPYDGmzmqrfUAcW-70" value="Mietwagen" style="swimlane;fontStyle=0;childLayout=stackLayout;horizontal=1;startSize=26;fillColor=none;horizontalStack=0;resizeParent=1;resizeParentMax=0;resizeLast=0;collapsible=1;marginBottom=0;" vertex="1" parent="1">
          <mxGeometry x="360" y="880" width="140" height="52" as="geometry" />
        </mxCell>
        <mxCell id="9h03OuPYDGmzmqrfUAcW-71" value="+ modell: String" style="text;strokeColor=none;fillColor=none;align=left;verticalAlign=top;spacingLeft=4;spacingRight=4;overflow=hidden;rotatable=0;points=[[0,0.5],[1,0.5]];portConstraint=eastwest;" vertex="1" parent="9h03OuPYDGmzmqrfUAcW-70">
          <mxGeometry y="26" width="140" height="26" as="geometry" />
        </mxCell>
        <mxCell id="9h03OuPYDGmzmqrfUAcW-72" value="WellnessAngebot" style="swimlane;fontStyle=0;childLayout=stackLayout;horizontal=1;startSize=26;fillColor=none;horizontalStack=0;resizeParent=1;resizeParentMax=0;resizeLast=0;collapsible=1;marginBottom=0;" vertex="1" parent="1">
          <mxGeometry x="570" y="867" width="140" height="78" as="geometry" />
        </mxCell>
        <mxCell id="9h03OuPYDGmzmqrfUAcW-73" value="+ name: String" style="text;strokeColor=none;fillColor=none;align=left;verticalAlign=top;spacingLeft=4;spacingRight=4;overflow=hidden;rotatable=0;points=[[0,0.5],[1,0.5]];portConstraint=eastwest;" vertex="1" parent="9h03OuPYDGmzmqrfUAcW-72">
          <mxGeometry y="26" width="140" height="26" as="geometry" />
        </mxCell>
        <mxCell id="9h03OuPYDGmzmqrfUAcW-74" value="+ dauer: String" style="text;strokeColor=none;fillColor=none;align=left;verticalAlign=top;spacingLeft=4;spacingRight=4;overflow=hidden;rotatable=0;points=[[0,0.5],[1,0.5]];portConstraint=eastwest;" vertex="1" parent="9h03OuPYDGmzmqrfUAcW-72">
          <mxGeometry y="52" width="140" height="26" as="geometry" />
        </mxCell>
        <mxCell id="9h03OuPYDGmzmqrfUAcW-75" value="&lt;&lt;enumeration&gt;&gt;&#xa;WellnessTyp" style="swimlane;fontStyle=0;childLayout=stackLayout;horizontal=1;startSize=26;fillColor=none;horizontalStack=0;resizeParent=1;resizeParentMax=0;resizeLast=0;collapsible=1;marginBottom=0;" vertex="1" parent="1">
          <mxGeometry x="570" y="708" width="140" height="52" as="geometry" />
        </mxCell>
        <mxCell id="9h03OuPYDGmzmqrfUAcW-76" value="" style="endArrow=block;endSize=16;endFill=0;html=1;rounded=0;exitX=0;exitY=0.5;exitDx=0;exitDy=0;entryX=1;entryY=0.5;entryDx=0;entryDy=0;" edge="1" parent="1" source="9h03OuPYDGmzmqrfUAcW-51" target="9h03OuPYDGmzmqrfUAcW-47">
          <mxGeometry width="160" relative="1" as="geometry">
            <mxPoint x="590" y="517.4300000000001" as="sourcePoint" />
            <mxPoint x="650" y="517.4300000000001" as="targetPoint" />
          </mxGeometry>
        </mxCell>
        <mxCell id="9h03OuPYDGmzmqrfUAcW-78" value="" style="endArrow=block;endSize=16;endFill=0;html=1;rounded=0;entryX=1;entryY=1;entryDx=0;entryDy=0;exitX=0;exitY=0;exitDx=0;exitDy=0;" edge="1" parent="1" source="9h03OuPYDGmzmqrfUAcW-52" target="9h03OuPYDGmzmqrfUAcW-47">
          <mxGeometry width="160" relative="1" as="geometry">
            <mxPoint x="600" y="518" as="sourcePoint" />
            <mxPoint x="660" y="518" as="targetPoint" />
          </mxGeometry>
        </mxCell>
        <mxCell id="9h03OuPYDGmzmqrfUAcW-79" value="" style="endArrow=block;endSize=16;endFill=0;html=1;rounded=0;entryX=1;entryY=0;entryDx=0;entryDy=0;exitX=0;exitY=1;exitDx=0;exitDy=0;" edge="1" parent="1" source="9h03OuPYDGmzmqrfUAcW-50" target="9h03OuPYDGmzmqrfUAcW-47">
          <mxGeometry width="160" relative="1" as="geometry">
            <mxPoint x="620" y="395.71" as="sourcePoint" />
            <mxPoint x="680" y="395.71" as="targetPoint" />
          </mxGeometry>
        </mxCell>
        <mxCell id="9h03OuPYDGmzmqrfUAcW-80" value="" style="endArrow=block;endSize=16;endFill=0;html=1;rounded=0;entryX=1;entryY=1;entryDx=0;entryDy=0;exitX=0;exitY=0;exitDx=0;exitDy=0;" edge="1" parent="1" source="9h03OuPYDGmzmqrfUAcW-72" target="9h03OuPYDGmzmqrfUAcW-67">
          <mxGeometry width="160" relative="1" as="geometry">
            <mxPoint x="520" y="820" as="sourcePoint" />
            <mxPoint x="580" y="820" as="targetPoint" />
          </mxGeometry>
        </mxCell>
        <mxCell id="9h03OuPYDGmzmqrfUAcW-81" value="" style="endArrow=block;endSize=16;endFill=0;html=1;rounded=0;entryX=0.5;entryY=1;entryDx=0;entryDy=0;exitX=0.5;exitY=0;exitDx=0;exitDy=0;" edge="1" parent="1" source="9h03OuPYDGmzmqrfUAcW-70" target="9h03OuPYDGmzmqrfUAcW-67">
          <mxGeometry width="160" relative="1" as="geometry">
            <mxPoint x="384" y="830" as="sourcePoint" />
            <mxPoint x="444" y="830" as="targetPoint" />
          </mxGeometry>
        </mxCell>
        <mxCell id="9h03OuPYDGmzmqrfUAcW-82" value="" style="endArrow=block;endSize=16;endFill=0;html=1;rounded=0;exitX=1;exitY=0;exitDx=0;exitDy=0;entryX=0;entryY=1;entryDx=0;entryDy=0;" edge="1" parent="1" source="9h03OuPYDGmzmqrfUAcW-68" target="9h03OuPYDGmzmqrfUAcW-67">
          <mxGeometry width="160" relative="1" as="geometry">
            <mxPoint x="240" y="800" as="sourcePoint" />
            <mxPoint x="300" y="800" as="targetPoint" />
          </mxGeometry>
        </mxCell>
        <mxCell id="9h03OuPYDGmzmqrfUAcW-91" value="" style="endArrow=none;html=1;edgeStyle=orthogonalEdgeStyle;rounded=0;startArrow=diamondThin;startFill=1;endSize=12;startSize=12;entryX=0.5;entryY=0;entryDx=0;entryDy=0;exitX=0.5;exitY=1;exitDx=0;exitDy=0;" edge="1" parent="1" source="9h03OuPYDGmzmqrfUAcW-9" target="9h03OuPYDGmzmqrfUAcW-34">
          <mxGeometry relative="1" as="geometry">
            <mxPoint x="339.97" y="120" as="sourcePoint" />
            <mxPoint x="339.68" y="202" as="targetPoint" />
          </mxGeometry>
        </mxCell>
        <mxCell id="9h03OuPYDGmzmqrfUAcW-92" value="1" style="edgeLabel;resizable=0;html=1;align=left;verticalAlign=bottom;" connectable="0" vertex="1" parent="9h03OuPYDGmzmqrfUAcW-91">
          <mxGeometry x="-1" relative="1" as="geometry">
            <mxPoint x="10" y="20" as="offset" />
          </mxGeometry>
        </mxCell>
        <mxCell id="9h03OuPYDGmzmqrfUAcW-93" value="*" style="edgeLabel;resizable=0;html=1;align=right;verticalAlign=bottom;" connectable="0" vertex="1" parent="9h03OuPYDGmzmqrfUAcW-91">
          <mxGeometry x="1" relative="1" as="geometry">
            <mxPoint x="-10" as="offset" />
          </mxGeometry>
        </mxCell>
        <mxCell id="9h03OuPYDGmzmqrfUAcW-97" value="" style="endArrow=none;html=1;edgeStyle=orthogonalEdgeStyle;rounded=0;startArrow=diamondThin;startFill=1;endSize=12;startSize=12;entryX=0;entryY=0.5;entryDx=0;entryDy=0;exitX=1;exitY=0.5;exitDx=0;exitDy=0;" edge="1" parent="1" source="9h03OuPYDGmzmqrfUAcW-58" target="9h03OuPYDGmzmqrfUAcW-100">
          <mxGeometry relative="1" as="geometry">
            <mxPoint x="580" y="518" as="sourcePoint" />
            <mxPoint x="580" y="600" as="targetPoint" />
          </mxGeometry>
        </mxCell>
        <mxCell id="9h03OuPYDGmzmqrfUAcW-98" value="1" style="edgeLabel;resizable=0;html=1;align=left;verticalAlign=bottom;" connectable="0" vertex="1" parent="9h03OuPYDGmzmqrfUAcW-97">
          <mxGeometry x="-1" relative="1" as="geometry">
            <mxPoint x="10" y="20" as="offset" />
          </mxGeometry>
        </mxCell>
        <mxCell id="9h03OuPYDGmzmqrfUAcW-99" value="1" style="edgeLabel;resizable=0;html=1;align=right;verticalAlign=bottom;" connectable="0" vertex="1" parent="9h03OuPYDGmzmqrfUAcW-97">
          <mxGeometry x="1" relative="1" as="geometry">
            <mxPoint x="-10" as="offset" />
          </mxGeometry>
        </mxCell>
        <mxCell id="9h03OuPYDGmzmqrfUAcW-100" value="Rechnung" style="swimlane;fontStyle=0;childLayout=stackLayout;horizontal=1;startSize=26;fillColor=none;horizontalStack=0;resizeParent=1;resizeParentMax=0;resizeLast=0;collapsible=1;marginBottom=0;" vertex="1" parent="1">
          <mxGeometry x="687" y="557" width="140" height="52" as="geometry" />
        </mxCell>
        <mxCell id="9h03OuPYDGmzmqrfUAcW-104" value="" style="endArrow=none;html=1;edgeStyle=orthogonalEdgeStyle;rounded=0;startArrow=diamondThin;startFill=0;endSize=12;startSize=12;exitX=1;exitY=0.25;exitDx=0;exitDy=0;entryX=0.25;entryY=0;entryDx=0;entryDy=0;" edge="1" parent="1" source="9h03OuPYDGmzmqrfUAcW-13" target="9h03OuPYDGmzmqrfUAcW-17">
          <mxGeometry relative="1" as="geometry">
            <mxPoint x="520" y="40" as="sourcePoint" />
            <mxPoint x="670" y="50" as="targetPoint" />
            <Array as="points">
              <mxPoint x="500" y="25" />
              <mxPoint x="555" y="25" />
            </Array>
          </mxGeometry>
        </mxCell>
        <mxCell id="9h03OuPYDGmzmqrfUAcW-105" value="1..*" style="edgeLabel;resizable=0;html=1;align=left;verticalAlign=bottom;" connectable="0" vertex="1" parent="9h03OuPYDGmzmqrfUAcW-104">
          <mxGeometry x="-1" relative="1" as="geometry">
            <mxPoint x="20" y="-6" as="offset" />
          </mxGeometry>
        </mxCell>
        <mxCell id="9h03OuPYDGmzmqrfUAcW-106" value="1..*" style="edgeLabel;resizable=0;html=1;align=right;verticalAlign=bottom;" connectable="0" vertex="1" parent="9h03OuPYDGmzmqrfUAcW-104">
          <mxGeometry x="1" relative="1" as="geometry">
            <mxPoint x="-5" as="offset" />
          </mxGeometry>
        </mxCell>
        <mxCell id="9h03OuPYDGmzmqrfUAcW-107" value="" style="endArrow=none;html=1;edgeStyle=orthogonalEdgeStyle;rounded=0;startArrow=diamondThin;startFill=0;endSize=12;startSize=12;exitX=0.75;exitY=0;exitDx=0;exitDy=0;entryX=0;entryY=0.25;entryDx=0;entryDy=0;" edge="1" parent="1" source="9h03OuPYDGmzmqrfUAcW-17" target="9h03OuPYDGmzmqrfUAcW-23">
          <mxGeometry relative="1" as="geometry">
            <mxPoint x="580" y="11.509999999999998" as="sourcePoint" />
            <mxPoint x="635" y="93.50999999999999" as="targetPoint" />
            <Array as="points">
              <mxPoint x="625" y="26" />
            </Array>
          </mxGeometry>
        </mxCell>
        <mxCell id="9h03OuPYDGmzmqrfUAcW-108" value="*" style="edgeLabel;resizable=0;html=1;align=left;verticalAlign=bottom;" connectable="0" vertex="1" parent="9h03OuPYDGmzmqrfUAcW-107">
          <mxGeometry x="-1" relative="1" as="geometry">
            <mxPoint x="5" y="-6" as="offset" />
          </mxGeometry>
        </mxCell>
        <mxCell id="9h03OuPYDGmzmqrfUAcW-109" value="1" style="edgeLabel;resizable=0;html=1;align=right;verticalAlign=bottom;" connectable="0" vertex="1" parent="9h03OuPYDGmzmqrfUAcW-107">
          <mxGeometry x="1" relative="1" as="geometry">
            <mxPoint x="-5" as="offset" />
          </mxGeometry>
        </mxCell>
        <mxCell id="9h03OuPYDGmzmqrfUAcW-110" value="" style="endArrow=none;html=1;edgeStyle=orthogonalEdgeStyle;rounded=0;startArrow=diamondThin;startFill=0;endSize=12;startSize=12;exitX=0.75;exitY=1;exitDx=0;exitDy=0;entryX=0;entryY=0.25;entryDx=0;entryDy=0;" edge="1" parent="1" source="9h03OuPYDGmzmqrfUAcW-17" target="9h03OuPYDGmzmqrfUAcW-27">
          <mxGeometry relative="1" as="geometry">
            <mxPoint x="510" y="320" as="sourcePoint" />
            <mxPoint x="670" y="320" as="targetPoint" />
          </mxGeometry>
        </mxCell>
        <mxCell id="9h03OuPYDGmzmqrfUAcW-111" value="*" style="edgeLabel;resizable=0;html=1;align=left;verticalAlign=bottom;" connectable="0" vertex="1" parent="9h03OuPYDGmzmqrfUAcW-110">
          <mxGeometry x="-1" relative="1" as="geometry">
            <mxPoint x="-15" y="16" as="offset" />
          </mxGeometry>
        </mxCell>
        <mxCell id="9h03OuPYDGmzmqrfUAcW-112" value="1" style="edgeLabel;resizable=0;html=1;align=right;verticalAlign=bottom;" connectable="0" vertex="1" parent="9h03OuPYDGmzmqrfUAcW-110">
          <mxGeometry x="1" relative="1" as="geometry">
            <mxPoint x="-7" as="offset" />
          </mxGeometry>
        </mxCell>
        <mxCell id="9h03OuPYDGmzmqrfUAcW-113" value="" style="endArrow=none;html=1;edgeStyle=orthogonalEdgeStyle;rounded=0;entryX=0.5;entryY=0;entryDx=0;entryDy=0;exitX=0.5;exitY=1;exitDx=0;exitDy=0;startArrow=open;startFill=0;" edge="1" parent="1" source="9h03OuPYDGmzmqrfUAcW-23" target="9h03OuPYDGmzmqrfUAcW-31">
          <mxGeometry relative="1" as="geometry">
            <mxPoint x="760" y="120" as="sourcePoint" />
            <mxPoint x="860" y="134" as="targetPoint" />
          </mxGeometry>
        </mxCell>
        <mxCell id="9h03OuPYDGmzmqrfUAcW-114" value="1" style="edgeLabel;resizable=0;html=1;align=left;verticalAlign=bottom;" connectable="0" vertex="1" parent="9h03OuPYDGmzmqrfUAcW-113">
          <mxGeometry x="-1" relative="1" as="geometry">
            <mxPoint x="3" y="16" as="offset" />
          </mxGeometry>
        </mxCell>
        <mxCell id="9h03OuPYDGmzmqrfUAcW-115" value="*" style="edgeLabel;resizable=0;html=1;align=right;verticalAlign=bottom;" connectable="0" vertex="1" parent="9h03OuPYDGmzmqrfUAcW-113">
          <mxGeometry x="1" relative="1" as="geometry">
            <mxPoint x="-7" as="offset" />
          </mxGeometry>
        </mxCell>
        <mxCell id="9h03OuPYDGmzmqrfUAcW-116" value="" style="endArrow=none;html=1;edgeStyle=orthogonalEdgeStyle;rounded=0;entryX=0.5;entryY=1;entryDx=0;entryDy=0;exitX=0.5;exitY=0;exitDx=0;exitDy=0;startArrow=open;startFill=0;" edge="1" parent="1" source="9h03OuPYDGmzmqrfUAcW-27" target="9h03OuPYDGmzmqrfUAcW-31">
          <mxGeometry relative="1" as="geometry">
            <mxPoint x="780" y="208" as="sourcePoint" />
            <mxPoint x="780" y="264" as="targetPoint" />
          </mxGeometry>
        </mxCell>
        <mxCell id="9h03OuPYDGmzmqrfUAcW-117" value="1" style="edgeLabel;resizable=0;html=1;align=left;verticalAlign=bottom;" connectable="0" vertex="1" parent="9h03OuPYDGmzmqrfUAcW-116">
          <mxGeometry x="-1" relative="1" as="geometry">
            <mxPoint x="3" as="offset" />
          </mxGeometry>
        </mxCell>
        <mxCell id="9h03OuPYDGmzmqrfUAcW-118" value="*" style="edgeLabel;resizable=0;html=1;align=right;verticalAlign=bottom;" connectable="0" vertex="1" parent="9h03OuPYDGmzmqrfUAcW-116">
          <mxGeometry x="1" relative="1" as="geometry">
            <mxPoint x="-7" y="18" as="offset" />
          </mxGeometry>
        </mxCell>
        <mxCell id="9h03OuPYDGmzmqrfUAcW-122" value="" style="endArrow=none;html=1;edgeStyle=orthogonalEdgeStyle;rounded=0;startArrow=diamondThin;startFill=0;endSize=12;startSize=12;exitX=0.5;exitY=0;exitDx=0;exitDy=0;entryX=0.5;entryY=1;entryDx=0;entryDy=0;" edge="1" parent="1" source="9h03OuPYDGmzmqrfUAcW-42" target="9h03OuPYDGmzmqrfUAcW-13">
          <mxGeometry relative="1" as="geometry">
            <mxPoint x="350" y="211.43" as="sourcePoint" />
            <mxPoint x="510" y="211.43" as="targetPoint" />
          </mxGeometry>
        </mxCell>
        <mxCell id="9h03OuPYDGmzmqrfUAcW-123" value="1" style="edgeLabel;resizable=0;html=1;align=left;verticalAlign=bottom;" connectable="0" vertex="1" parent="9h03OuPYDGmzmqrfUAcW-122">
          <mxGeometry x="-1" relative="1" as="geometry">
            <mxPoint x="10" y="-12" as="offset" />
          </mxGeometry>
        </mxCell>
        <mxCell id="9h03OuPYDGmzmqrfUAcW-124" value="1" style="edgeLabel;resizable=0;html=1;align=right;verticalAlign=bottom;" connectable="0" vertex="1" parent="9h03OuPYDGmzmqrfUAcW-122">
          <mxGeometry x="1" relative="1" as="geometry">
            <mxPoint x="-10" y="16" as="offset" />
          </mxGeometry>
        </mxCell>
        <mxCell id="9h03OuPYDGmzmqrfUAcW-125" value="" style="endArrow=none;html=1;edgeStyle=orthogonalEdgeStyle;rounded=0;startArrow=diamondThin;startFill=0;endSize=12;startSize=12;exitX=1;exitY=0.5;exitDx=0;exitDy=0;entryX=0;entryY=-0.077;entryDx=0;entryDy=0;entryPerimeter=0;" edge="1" parent="1" source="9h03OuPYDGmzmqrfUAcW-9" target="9h03OuPYDGmzmqrfUAcW-15">
          <mxGeometry relative="1" as="geometry">
            <mxPoint x="320" y="140.00000000000006" as="sourcePoint" />
            <mxPoint x="320" y="30" as="targetPoint" />
            <Array as="points">
              <mxPoint x="360" y="52" />
            </Array>
          </mxGeometry>
        </mxCell>
        <mxCell id="9h03OuPYDGmzmqrfUAcW-126" value="1" style="edgeLabel;resizable=0;html=1;align=left;verticalAlign=bottom;" connectable="0" vertex="1" parent="9h03OuPYDGmzmqrfUAcW-125">
          <mxGeometry x="-1" relative="1" as="geometry">
            <mxPoint x="20" as="offset" />
          </mxGeometry>
        </mxCell>
        <mxCell id="9h03OuPYDGmzmqrfUAcW-127" value="1" style="edgeLabel;resizable=0;html=1;align=right;verticalAlign=bottom;" connectable="0" vertex="1" parent="9h03OuPYDGmzmqrfUAcW-125">
          <mxGeometry x="1" relative="1" as="geometry">
            <mxPoint x="-10" as="offset" />
          </mxGeometry>
        </mxCell>
        <mxCell id="9h03OuPYDGmzmqrfUAcW-128" value="" style="endArrow=none;html=1;edgeStyle=orthogonalEdgeStyle;rounded=0;startArrow=diamondThin;startFill=0;endSize=12;startSize=12;entryX=1;entryY=0;entryDx=0;entryDy=0;exitX=0;exitY=0.25;exitDx=0;exitDy=0;" edge="1" parent="1" source="9h03OuPYDGmzmqrfUAcW-34" target="9h03OuPYDGmzmqrfUAcW-36">
          <mxGeometry relative="1" as="geometry">
            <mxPoint x="160" y="190" as="sourcePoint" />
            <mxPoint x="330" y="330" as="targetPoint" />
            <Array as="points">
              <mxPoint x="140" y="173" />
            </Array>
          </mxGeometry>
        </mxCell>
        <mxCell id="9h03OuPYDGmzmqrfUAcW-129" value="*" style="edgeLabel;resizable=0;html=1;align=left;verticalAlign=bottom;" connectable="0" vertex="1" parent="9h03OuPYDGmzmqrfUAcW-128">
          <mxGeometry x="-1" relative="1" as="geometry">
            <mxPoint x="-20" y="-3" as="offset" />
          </mxGeometry>
        </mxCell>
        <mxCell id="9h03OuPYDGmzmqrfUAcW-130" value="1" style="edgeLabel;resizable=0;html=1;align=right;verticalAlign=bottom;" connectable="0" vertex="1" parent="9h03OuPYDGmzmqrfUAcW-128">
          <mxGeometry x="1" relative="1" as="geometry">
            <mxPoint x="-10" as="offset" />
          </mxGeometry>
        </mxCell>
        <mxCell id="9h03OuPYDGmzmqrfUAcW-131" value="" style="endArrow=none;html=1;edgeStyle=orthogonalEdgeStyle;rounded=0;entryX=0.5;entryY=0;entryDx=0;entryDy=0;startArrow=open;startFill=0;" edge="1" parent="1" source="9h03OuPYDGmzmqrfUAcW-34" target="9h03OuPYDGmzmqrfUAcW-40">
          <mxGeometry relative="1" as="geometry">
            <mxPoint x="290" y="270" as="sourcePoint" />
            <mxPoint x="270" y="294" as="targetPoint" />
          </mxGeometry>
        </mxCell>
        <mxCell id="9h03OuPYDGmzmqrfUAcW-132" value="1" style="edgeLabel;resizable=0;html=1;align=left;verticalAlign=bottom;" connectable="0" vertex="1" parent="9h03OuPYDGmzmqrfUAcW-131">
          <mxGeometry x="-1" relative="1" as="geometry">
            <mxPoint x="3" y="16" as="offset" />
          </mxGeometry>
        </mxCell>
        <mxCell id="9h03OuPYDGmzmqrfUAcW-133" value="*" style="edgeLabel;resizable=0;html=1;align=right;verticalAlign=bottom;" connectable="0" vertex="1" parent="9h03OuPYDGmzmqrfUAcW-131">
          <mxGeometry x="1" relative="1" as="geometry">
            <mxPoint x="-7" as="offset" />
          </mxGeometry>
        </mxCell>
        <mxCell id="9h03OuPYDGmzmqrfUAcW-137" value="" style="endArrow=none;html=1;edgeStyle=orthogonalEdgeStyle;rounded=0;entryX=0;entryY=0;entryDx=0;entryDy=0;exitX=0.5;exitY=1;exitDx=0;exitDy=0;" edge="1" parent="1" source="9h03OuPYDGmzmqrfUAcW-40" target="9h03OuPYDGmzmqrfUAcW-53">
          <mxGeometry relative="1" as="geometry">
            <mxPoint x="180" y="470" as="sourcePoint" />
            <mxPoint x="340" y="470" as="targetPoint" />
            <Array as="points">
              <mxPoint x="250" y="492" />
            </Array>
          </mxGeometry>
        </mxCell>
        <mxCell id="9h03OuPYDGmzmqrfUAcW-138" value="1..*" style="edgeLabel;resizable=0;html=1;align=left;verticalAlign=bottom;" connectable="0" vertex="1" parent="9h03OuPYDGmzmqrfUAcW-137">
          <mxGeometry x="-1" relative="1" as="geometry">
            <mxPoint y="18" as="offset" />
          </mxGeometry>
        </mxCell>
        <mxCell id="9h03OuPYDGmzmqrfUAcW-139" value="1" style="edgeLabel;resizable=0;html=1;align=right;verticalAlign=bottom;" connectable="0" vertex="1" parent="9h03OuPYDGmzmqrfUAcW-137">
          <mxGeometry x="1" relative="1" as="geometry">
            <mxPoint x="-10" y="-2" as="offset" />
          </mxGeometry>
        </mxCell>
        <mxCell id="9h03OuPYDGmzmqrfUAcW-140" value="" style="endArrow=none;html=1;edgeStyle=orthogonalEdgeStyle;rounded=0;startArrow=diamondThin;startFill=0;endSize=12;startSize=12;entryX=1;entryY=0.5;entryDx=0;entryDy=0;" edge="1" parent="1" target="9h03OuPYDGmzmqrfUAcW-59">
          <mxGeometry relative="1" as="geometry">
            <mxPoint x="360" y="544" as="sourcePoint" />
            <mxPoint x="290" y="622" as="targetPoint" />
            <Array as="points">
              <mxPoint x="360" y="544" />
            </Array>
          </mxGeometry>
        </mxCell>
        <mxCell id="9h03OuPYDGmzmqrfUAcW-141" value="*" style="edgeLabel;resizable=0;html=1;align=left;verticalAlign=bottom;" connectable="0" vertex="1" parent="9h03OuPYDGmzmqrfUAcW-140">
          <mxGeometry x="-1" relative="1" as="geometry">
            <mxPoint x="-20" y="-3" as="offset" />
          </mxGeometry>
        </mxCell>
        <mxCell id="9h03OuPYDGmzmqrfUAcW-142" value="1" style="edgeLabel;resizable=0;html=1;align=right;verticalAlign=bottom;" connectable="0" vertex="1" parent="9h03OuPYDGmzmqrfUAcW-140">
          <mxGeometry x="1" relative="1" as="geometry">
            <mxPoint x="10" as="offset" />
          </mxGeometry>
        </mxCell>
        <mxCell id="9h03OuPYDGmzmqrfUAcW-143" value="" style="endArrow=none;html=1;edgeStyle=orthogonalEdgeStyle;rounded=0;entryX=0.5;entryY=1;entryDx=0;entryDy=0;exitX=0.5;exitY=0;exitDx=0;exitDy=0;startArrow=open;startFill=0;" edge="1" parent="1" source="9h03OuPYDGmzmqrfUAcW-53" target="9h03OuPYDGmzmqrfUAcW-42">
          <mxGeometry relative="1" as="geometry">
            <mxPoint x="429.71" y="458" as="sourcePoint" />
            <mxPoint x="429.71" y="400" as="targetPoint" />
          </mxGeometry>
        </mxCell>
        <mxCell id="9h03OuPYDGmzmqrfUAcW-144" value="*" style="edgeLabel;resizable=0;html=1;align=left;verticalAlign=bottom;" connectable="0" vertex="1" parent="9h03OuPYDGmzmqrfUAcW-143">
          <mxGeometry x="-1" relative="1" as="geometry">
            <mxPoint x="3" as="offset" />
          </mxGeometry>
        </mxCell>
        <mxCell id="9h03OuPYDGmzmqrfUAcW-145" value="1" style="edgeLabel;resizable=0;html=1;align=right;verticalAlign=bottom;" connectable="0" vertex="1" parent="9h03OuPYDGmzmqrfUAcW-143">
          <mxGeometry x="1" relative="1" as="geometry">
            <mxPoint x="-7" y="18" as="offset" />
          </mxGeometry>
        </mxCell>
        <mxCell id="9h03OuPYDGmzmqrfUAcW-146" value="" style="endArrow=none;html=1;edgeStyle=orthogonalEdgeStyle;rounded=0;entryX=1;entryY=0.5;entryDx=0;entryDy=0;exitX=0.5;exitY=0;exitDx=0;exitDy=0;startArrow=open;startFill=0;" edge="1" parent="1" source="9h03OuPYDGmzmqrfUAcW-47" target="9h03OuPYDGmzmqrfUAcW-44">
          <mxGeometry relative="1" as="geometry">
            <mxPoint x="440" y="502" as="sourcePoint" />
            <mxPoint x="440" y="392" as="targetPoint" />
          </mxGeometry>
        </mxCell>
        <mxCell id="9h03OuPYDGmzmqrfUAcW-147" value="*" style="edgeLabel;resizable=0;html=1;align=left;verticalAlign=bottom;" connectable="0" vertex="1" parent="9h03OuPYDGmzmqrfUAcW-146">
          <mxGeometry x="-1" relative="1" as="geometry">
            <mxPoint x="3" as="offset" />
          </mxGeometry>
        </mxCell>
        <mxCell id="9h03OuPYDGmzmqrfUAcW-148" value="1" style="edgeLabel;resizable=0;html=1;align=right;verticalAlign=bottom;" connectable="0" vertex="1" parent="9h03OuPYDGmzmqrfUAcW-146">
          <mxGeometry x="1" relative="1" as="geometry">
            <mxPoint x="10" y="-7" as="offset" />
          </mxGeometry>
        </mxCell>
        <mxCell id="9h03OuPYDGmzmqrfUAcW-149" value="" style="endArrow=none;html=1;edgeStyle=orthogonalEdgeStyle;rounded=0;entryX=0.5;entryY=0;entryDx=0;entryDy=0;" edge="1" parent="1" source="9h03OuPYDGmzmqrfUAcW-53" target="9h03OuPYDGmzmqrfUAcW-63">
          <mxGeometry relative="1" as="geometry">
            <mxPoint x="210" y="640" as="sourcePoint" />
            <mxPoint x="370" y="640" as="targetPoint" />
          </mxGeometry>
        </mxCell>
        <mxCell id="9h03OuPYDGmzmqrfUAcW-150" value="1" style="edgeLabel;resizable=0;html=1;align=left;verticalAlign=bottom;" connectable="0" vertex="1" parent="9h03OuPYDGmzmqrfUAcW-149">
          <mxGeometry x="-1" relative="1" as="geometry">
            <mxPoint x="-10" y="24" as="offset" />
          </mxGeometry>
        </mxCell>
        <mxCell id="9h03OuPYDGmzmqrfUAcW-151" value="*" style="edgeLabel;resizable=0;html=1;align=right;verticalAlign=bottom;" connectable="0" vertex="1" parent="9h03OuPYDGmzmqrfUAcW-149">
          <mxGeometry x="1" relative="1" as="geometry">
            <mxPoint x="10" as="offset" />
          </mxGeometry>
        </mxCell>
        <mxCell id="9h03OuPYDGmzmqrfUAcW-152" value="" style="endArrow=none;html=1;edgeStyle=orthogonalEdgeStyle;rounded=0;startArrow=diamondThin;startFill=0;endSize=12;startSize=12;entryX=0.5;entryY=1;entryDx=0;entryDy=0;exitX=0.5;exitY=0;exitDx=0;exitDy=0;" edge="1" parent="1" source="9h03OuPYDGmzmqrfUAcW-72" target="9h03OuPYDGmzmqrfUAcW-75">
          <mxGeometry relative="1" as="geometry">
            <mxPoint x="675" y="785.71" as="sourcePoint" />
            <mxPoint x="605" y="785.71" as="targetPoint" />
            <Array as="points">
              <mxPoint x="640" y="810" />
              <mxPoint x="640" y="810" />
            </Array>
          </mxGeometry>
        </mxCell>
        <mxCell id="9h03OuPYDGmzmqrfUAcW-153" value="*" style="edgeLabel;resizable=0;html=1;align=left;verticalAlign=bottom;" connectable="0" vertex="1" parent="9h03OuPYDGmzmqrfUAcW-152">
          <mxGeometry x="-1" relative="1" as="geometry">
            <mxPoint x="-20" y="-3" as="offset" />
          </mxGeometry>
        </mxCell>
        <mxCell id="9h03OuPYDGmzmqrfUAcW-154" value="1" style="edgeLabel;resizable=0;html=1;align=right;verticalAlign=bottom;" connectable="0" vertex="1" parent="9h03OuPYDGmzmqrfUAcW-152">
          <mxGeometry x="1" relative="1" as="geometry">
            <mxPoint x="10" y="22" as="offset" />
          </mxGeometry>
        </mxCell>
        <mxCell id="9h03OuPYDGmzmqrfUAcW-155" value="" style="endArrow=none;html=1;edgeStyle=orthogonalEdgeStyle;rounded=0;entryX=0.5;entryY=1;entryDx=0;entryDy=0;startArrow=open;startFill=0;exitX=0.5;exitY=0;exitDx=0;exitDy=0;" edge="1" parent="1" source="9h03OuPYDGmzmqrfUAcW-67" target="9h03OuPYDGmzmqrfUAcW-63">
          <mxGeometry relative="1" as="geometry">
            <mxPoint x="470" y="780" as="sourcePoint" />
            <mxPoint x="530" y="754" as="targetPoint" />
          </mxGeometry>
        </mxCell>
        <mxCell id="9h03OuPYDGmzmqrfUAcW-156" value="1" style="edgeLabel;resizable=0;html=1;align=left;verticalAlign=bottom;" connectable="0" vertex="1" parent="9h03OuPYDGmzmqrfUAcW-155">
          <mxGeometry x="-1" relative="1" as="geometry">
            <mxPoint x="3" as="offset" />
          </mxGeometry>
        </mxCell>
        <mxCell id="9h03OuPYDGmzmqrfUAcW-157" value="*" style="edgeLabel;resizable=0;html=1;align=right;verticalAlign=bottom;" connectable="0" vertex="1" parent="9h03OuPYDGmzmqrfUAcW-155">
          <mxGeometry x="1" relative="1" as="geometry">
            <mxPoint x="-7" y="18" as="offset" />
          </mxGeometry>
        </mxCell>
        <mxCell id="9h03OuPYDGmzmqrfUAcW-158" value="" style="endArrow=none;html=1;edgeStyle=orthogonalEdgeStyle;rounded=0;entryX=1;entryY=0.5;entryDx=0;entryDy=0;exitX=0.5;exitY=1;exitDx=0;exitDy=0;startArrow=open;startFill=0;" edge="1" parent="1" source="9h03OuPYDGmzmqrfUAcW-47" target="9h03OuPYDGmzmqrfUAcW-54">
          <mxGeometry relative="1" as="geometry">
            <mxPoint x="589.71" y="570" as="sourcePoint" />
            <mxPoint x="589.71" y="512" as="targetPoint" />
          </mxGeometry>
        </mxCell>
        <mxCell id="9h03OuPYDGmzmqrfUAcW-159" value="1" style="edgeLabel;resizable=0;html=1;align=left;verticalAlign=bottom;" connectable="0" vertex="1" parent="9h03OuPYDGmzmqrfUAcW-158">
          <mxGeometry x="-1" relative="1" as="geometry">
            <mxPoint x="3" y="18" as="offset" />
          </mxGeometry>
        </mxCell>
        <mxCell id="9h03OuPYDGmzmqrfUAcW-160" value="*" style="edgeLabel;resizable=0;html=1;align=right;verticalAlign=bottom;" connectable="0" vertex="1" parent="9h03OuPYDGmzmqrfUAcW-158">
          <mxGeometry x="1" relative="1" as="geometry">
            <mxPoint x="10" y="-1" as="offset" />
          </mxGeometry>
        </mxCell>
      </root>
    </mxGraphModel>
  </diagram>
</mxfile>
